<?xml version="1.0"?>
<svg xmlns="http://www.w3.org/2000/svg" viewBox="0 0 512 512" width="512" height="512"><g id="FilledOutline"><path d="M112,256v32H224V256L216.53,39.45A16,16,0,0,0,200.54,24H135.46a16,16,0,0,0-15.99,15.45Z" style="fill:#58646f"/><path d="M184,255.72V288h40V256L216.53,39.45A16,16,0,0,0,200.54,24h-4.83a32.01,32.01,0,0,0-4.23,14.9Z" style="fill:#35505d"/><path d="M72,280v52.67A390.993,390.993,0,0,0,87.37,441.23q5.385,18.63,12.61,36.71A15.989,15.989,0,0,0,114.83,488H221.17a15.979,15.979,0,0,0,14.85-10.06q7.23-18.06,12.61-36.71A390.993,390.993,0,0,0,264,332.67V280l-40-24H112Z" style="fill:#d83d67"/><path d="M144,270.94v61.73a406.708,406.708,0,0,0,16,113c3.74,12.95,8.16,25.81,13.13,38.22a31.827,31.827,0,0,0,1.99,4.11h46.05a15.979,15.979,0,0,0,14.85-10.06q7.23-18.06,12.61-36.71A390.993,390.993,0,0,0,264,332.67V280l-40-24H168.9Z" style="fill:#c5385e"/><path d="M87.37,441.23q5.385,18.63,12.61,36.71A15.989,15.989,0,0,0,114.83,488H221.17a15.979,15.979,0,0,0,14.85-10.06q7.23-18.06,12.61-36.71l-11.46,6.87a55.465,55.465,0,0,1-28.53,7.9H127.36a55.465,55.465,0,0,1-28.53-7.9Z" style="fill:#ccdce4"/><path d="M163.14,456c3,9.44,6.34,18.79,9.99,27.89a31.827,31.827,0,0,0,1.99,4.11h46.05a15.979,15.979,0,0,0,14.85-10.06q7.23-18.06,12.61-36.71l-11.46,6.87a55.465,55.465,0,0,1-28.53,7.9Z" style="fill:#abbac2"/><path d="M400,256v32H288V256l7.47-216.55A16,16,0,0,1,311.46,24h65.08a16,16,0,0,1,15.99,15.45Z" style="fill:#58646f"/><path d="M328,255.72V288H288V256l7.47-216.55A16,16,0,0,1,311.46,24h4.83a32.01,32.01,0,0,1,4.23,14.9Z" style="fill:#35505d"/><path d="M440,280v52.67a390.993,390.993,0,0,1-15.37,108.56q-5.385,18.63-12.61,36.71A15.989,15.989,0,0,1,397.17,488H290.83a15.979,15.979,0,0,1-14.85-10.06q-7.23-18.06-12.61-36.71A390.993,390.993,0,0,1,248,332.67V280l40-24H400Z" style="fill:#f37952"/><path d="M368,270.94v61.73a406.708,406.708,0,0,1-16,113c-3.74,12.95-8.16,25.81-13.13,38.22a31.827,31.827,0,0,1-1.99,4.11H290.83a15.979,15.979,0,0,1-14.85-10.06q-7.23-18.06-12.61-36.71A390.993,390.993,0,0,1,248,332.67V280l40-24h55.1Z" style="fill:#ed6c42"/><path d="M424.63,441.23q-5.385,18.63-12.61,36.71A15.989,15.989,0,0,1,397.17,488H290.83a15.979,15.979,0,0,1-14.85-10.06q-7.23-18.06-12.61-36.71l11.46,6.87a55.465,55.465,0,0,0,28.53,7.9h81.28a55.465,55.465,0,0,0,28.53-7.9Z" style="fill:#ccdce4"/><path d="M348.86,456c-3,9.44-6.34,18.79-9.99,27.89a31.827,31.827,0,0,1-1.99,4.11H290.83a15.979,15.979,0,0,1-14.85-10.06q-7.23-18.06-12.61-36.71l11.46,6.87a55.465,55.465,0,0,0,28.53,7.9Z" style="fill:#abbac2"/><path d="M200,288H312V256L304.533,39.449A16,16,0,0,0,288.542,24H223.458a16,16,0,0,0-15.991,15.449L200,256Z" style="fill:#58646f"/><path d="M352,280v52.67a390.993,390.993,0,0,1-15.37,108.56q-5.385,18.63-12.61,36.71A15.989,15.989,0,0,1,309.17,488H202.83a15.979,15.979,0,0,1-14.85-10.06q-7.23-18.06-12.61-36.71A390.993,390.993,0,0,1,160,332.67V280l40-24H312Z" style="fill:#ef5349"/><path d="M336.63,441.23q-5.385,18.63-12.61,36.71A15.989,15.989,0,0,1,309.17,488H202.83a15.979,15.979,0,0,1-14.85-10.06q-7.23-18.06-12.61-36.71l11.46,6.87a55.465,55.465,0,0,0,28.53,7.9h81.28a55.465,55.465,0,0,0,28.53-7.9Z" style="fill:#ccdce4"/><path d="M360,280a8,8,0,0,0-3.884-6.86l-36.271-21.762-7.318-212.2A23.907,23.907,0,0,0,288.542,16H223.458a23.907,23.907,0,0,0-23.985,23.173l-7.318,212.205L155.884,273.14A8,8,0,0,0,152,280v52.67a397.408,397.408,0,0,0,28.549,148.244A23.886,23.886,0,0,0,202.833,496H309.167a23.886,23.886,0,0,0,22.284-15.086A397.408,397.408,0,0,0,360,332.67ZM223.458,32h65.084a7.969,7.969,0,0,1,8,7.725L303.719,248H208.281l7.182-208.276A7.969,7.969,0,0,1,223.458,32Zm85.709,448H202.833a7.963,7.963,0,0,1-7.429-5.029q-3.3-8.259-6.206-16.624A63.481,63.481,0,0,0,215.36,464h81.28a63.465,63.465,0,0,0,26.162-5.653q-2.909,8.363-6.206,16.624A7.963,7.963,0,0,1,309.167,480ZM344,332.67a381.448,381.448,0,0,1-14.2,103.323l-8.743,5.246A47.483,47.483,0,0,1,296.64,448H215.36a47.479,47.479,0,0,1-24.414-6.76l-8.745-5.247A381.448,381.448,0,0,1,168,332.67V284.529L202.216,264H309.784L344,284.529Z"/><path d="M107.4,474.971q-3.3-8.259-6.206-16.624A63.481,63.481,0,0,0,127.36,464H152V448H127.36a47.479,47.479,0,0,1-24.414-6.76L94.2,435.993A381.448,381.448,0,0,1,80,332.67V284.529L114.216,264H152V248H120.281l7.182-208.276a7.969,7.969,0,0,1,8-7.724H184V16H135.458a23.907,23.907,0,0,0-23.985,23.173l-7.318,212.205L67.884,273.14A8,8,0,0,0,64,280v52.67A397.408,397.408,0,0,0,92.549,480.914,23.886,23.886,0,0,0,114.833,496H168V480H114.833A7.963,7.963,0,0,1,107.4,474.971Z"/><path d="M444.116,273.14l-36.271-21.762-7.318-212.2A23.907,23.907,0,0,0,376.542,16H328V32h48.542a7.969,7.969,0,0,1,8,7.725L391.719,248H360v16h37.784L432,284.529V332.67a381.448,381.448,0,0,1-14.2,103.323l-8.743,5.246A47.483,47.483,0,0,1,384.64,448H360v16h24.64a63.465,63.465,0,0,0,26.162-5.653q-2.909,8.363-6.206,16.624A7.963,7.963,0,0,1,397.167,480H344v16h53.167a23.886,23.886,0,0,0,22.284-15.086A397.408,397.408,0,0,0,448,332.67V280A8,8,0,0,0,444.116,273.14Z"/><rect x="248" y="296" width="16" height="16"/><rect x="232" y="328" width="48" height="16"/></g></svg>
